<mxfile host="app.diagrams.net" modified="2023-11-08T02:09:55.740Z" agent="Mozilla/5.0 (Macintosh; Intel Mac OS X 10_15_7) AppleWebKit/537.36 (KHTML, like Gecko) Chrome/119.0.0.0 Safari/537.36" etag="Frl5ZMdpPS-FZ78XmtqW" version="22.0.8" type="github">
  <diagram id="gHdGT0hqlNenqPQnGmaF" name="第 1 页">
    <mxGraphModel dx="2878" dy="576" grid="1" gridSize="10" guides="1" tooltips="1" connect="1" arrows="1" fold="1" page="1" pageScale="1" pageWidth="827" pageHeight="1169" math="0" shadow="0">
      <root>
        <mxCell id="0" />
        <mxCell id="1" parent="0" />
        <mxCell id="6_AVYcbNs08KcEML1Ji8-1" value="功能模块图" style="text;html=1;strokeColor=#6c8ebf;fillColor=#dae8fc;align=center;verticalAlign=middle;whiteSpace=wrap;rounded=0;fontSize=27;" parent="1" vertex="1">
          <mxGeometry y="10" width="680" height="60" as="geometry" />
        </mxCell>
        <mxCell id="wtcgkGCjL-V0qk2THGTA-8" value="" style="edgeStyle=orthogonalEdgeStyle;rounded=0;orthogonalLoop=1;jettySize=auto;html=1;" parent="1" target="wtcgkGCjL-V0qk2THGTA-3" edge="1">
          <mxGeometry relative="1" as="geometry">
            <mxPoint x="590" y="295" as="sourcePoint" />
            <Array as="points">
              <mxPoint x="590" y="145" />
            </Array>
          </mxGeometry>
        </mxCell>
        <mxCell id="wtcgkGCjL-V0qk2THGTA-10" style="edgeStyle=orthogonalEdgeStyle;rounded=0;orthogonalLoop=1;jettySize=auto;html=1;exitX=1;exitY=0.5;exitDx=0;exitDy=0;entryX=0;entryY=0.5;entryDx=0;entryDy=0;" parent="1" source="6_AVYcbNs08KcEML1Ji8-2" target="6_AVYcbNs08KcEML1Ji8-4" edge="1">
          <mxGeometry relative="1" as="geometry" />
        </mxCell>
        <mxCell id="wtcgkGCjL-V0qk2THGTA-11" style="edgeStyle=orthogonalEdgeStyle;rounded=0;orthogonalLoop=1;jettySize=auto;html=1;exitX=1;exitY=0.5;exitDx=0;exitDy=0;entryX=0;entryY=0.5;entryDx=0;entryDy=0;" parent="1" source="6_AVYcbNs08KcEML1Ji8-2" target="6_AVYcbNs08KcEML1Ji8-8" edge="1">
          <mxGeometry relative="1" as="geometry" />
        </mxCell>
        <mxCell id="wtcgkGCjL-V0qk2THGTA-12" style="edgeStyle=orthogonalEdgeStyle;rounded=0;orthogonalLoop=1;jettySize=auto;html=1;exitX=1;exitY=0.5;exitDx=0;exitDy=0;entryX=0;entryY=0.5;entryDx=0;entryDy=0;" parent="1" source="6_AVYcbNs08KcEML1Ji8-2" target="6_AVYcbNs08KcEML1Ji8-9" edge="1">
          <mxGeometry relative="1" as="geometry" />
        </mxCell>
        <mxCell id="wtcgkGCjL-V0qk2THGTA-13" style="edgeStyle=orthogonalEdgeStyle;rounded=0;orthogonalLoop=1;jettySize=auto;html=1;exitX=1;exitY=0.5;exitDx=0;exitDy=0;entryX=0;entryY=0.5;entryDx=0;entryDy=0;" parent="1" source="6_AVYcbNs08KcEML1Ji8-2" target="wtcgkGCjL-V0qk2THGTA-2" edge="1">
          <mxGeometry relative="1" as="geometry" />
        </mxCell>
        <mxCell id="jG9ODHnWhC-1K8Zq-rV6-2" style="edgeStyle=orthogonalEdgeStyle;rounded=0;orthogonalLoop=1;jettySize=auto;html=1;exitX=1;exitY=0.5;exitDx=0;exitDy=0;entryX=0;entryY=0.5;entryDx=0;entryDy=0;" parent="1" source="6_AVYcbNs08KcEML1Ji8-2" target="jG9ODHnWhC-1K8Zq-rV6-1" edge="1">
          <mxGeometry relative="1" as="geometry" />
        </mxCell>
        <mxCell id="6_AVYcbNs08KcEML1Ji8-2" value="（1）网站端" style="rounded=1;whiteSpace=wrap;html=1;fontSize=14;fillColor=#dae8fc;strokeColor=#6c8ebf;" parent="1" vertex="1">
          <mxGeometry x="440" y="270" width="120" height="50" as="geometry" />
        </mxCell>
        <mxCell id="wtcgkGCjL-V0qk2THGTA-17" style="edgeStyle=orthogonalEdgeStyle;rounded=0;orthogonalLoop=1;jettySize=auto;html=1;exitX=1;exitY=0.5;exitDx=0;exitDy=0;entryX=0;entryY=0.5;entryDx=0;entryDy=0;" parent="1" source="6_AVYcbNs08KcEML1Ji8-4" target="wtcgkGCjL-V0qk2THGTA-4" edge="1">
          <mxGeometry relative="1" as="geometry" />
        </mxCell>
        <mxCell id="wtcgkGCjL-V0qk2THGTA-18" style="edgeStyle=orthogonalEdgeStyle;rounded=0;orthogonalLoop=1;jettySize=auto;html=1;exitX=1;exitY=0.5;exitDx=0;exitDy=0;entryX=0;entryY=0.5;entryDx=0;entryDy=0;" parent="1" source="6_AVYcbNs08KcEML1Ji8-4" target="wtcgkGCjL-V0qk2THGTA-5" edge="1">
          <mxGeometry relative="1" as="geometry" />
        </mxCell>
        <mxCell id="6_AVYcbNs08KcEML1Ji8-4" value="数据可视化" style="rounded=1;whiteSpace=wrap;html=1;fontSize=14;fillColor=#d5e8d4;strokeColor=#82b366;" parent="1" vertex="1">
          <mxGeometry x="620" y="170" width="120" height="30" as="geometry" />
        </mxCell>
        <mxCell id="wtcgkGCjL-V0qk2THGTA-16" style="edgeStyle=orthogonalEdgeStyle;rounded=0;orthogonalLoop=1;jettySize=auto;html=1;exitX=1;exitY=0.5;exitDx=0;exitDy=0;entryX=0;entryY=0.5;entryDx=0;entryDy=0;" parent="1" source="6_AVYcbNs08KcEML1Ji8-8" target="wtcgkGCjL-V0qk2THGTA-15" edge="1">
          <mxGeometry relative="1" as="geometry" />
        </mxCell>
        <mxCell id="6_AVYcbNs08KcEML1Ji8-8" value="职位推荐" style="rounded=1;whiteSpace=wrap;html=1;fontSize=14;fillColor=#e1d5e7;strokeColor=#9673a6;" parent="1" vertex="1">
          <mxGeometry x="620" y="260" width="120" height="30" as="geometry" />
        </mxCell>
        <mxCell id="wtcgkGCjL-V0qk2THGTA-14" style="edgeStyle=orthogonalEdgeStyle;rounded=0;orthogonalLoop=1;jettySize=auto;html=1;exitX=1;exitY=0.5;exitDx=0;exitDy=0;entryX=0;entryY=0.5;entryDx=0;entryDy=0;" parent="1" source="6_AVYcbNs08KcEML1Ji8-9" target="wtcgkGCjL-V0qk2THGTA-6" edge="1">
          <mxGeometry relative="1" as="geometry" />
        </mxCell>
        <mxCell id="6_AVYcbNs08KcEML1Ji8-9" value="数据查询" style="rounded=1;whiteSpace=wrap;html=1;fontSize=14;fillColor=#d5e8d4;strokeColor=#82b366;" parent="1" vertex="1">
          <mxGeometry x="620" y="460" width="120" height="30" as="geometry" />
        </mxCell>
        <mxCell id="wtcgkGCjL-V0qk2THGTA-2" value="浏览历史记录" style="rounded=1;whiteSpace=wrap;html=1;fontSize=14;fillColor=#d5e8d4;strokeColor=#82b366;" parent="1" vertex="1">
          <mxGeometry x="620" y="510" width="120" height="30" as="geometry" />
        </mxCell>
        <mxCell id="wtcgkGCjL-V0qk2THGTA-3" value="登录与注册" style="rounded=1;whiteSpace=wrap;html=1;fontSize=14;fillColor=#fff2cc;strokeColor=#d6b656;" parent="1" vertex="1">
          <mxGeometry x="620" y="120" width="120" height="30" as="geometry" />
        </mxCell>
        <mxCell id="wtcgkGCjL-V0qk2THGTA-4" value="Echarts可视化" style="rounded=1;whiteSpace=wrap;html=1;fontSize=14;fillColor=#d5e8d4;strokeColor=#82b366;" parent="1" vertex="1">
          <mxGeometry x="780" y="140" width="120" height="30" as="geometry" />
        </mxCell>
        <mxCell id="wtcgkGCjL-V0qk2THGTA-5" value="词云|百度地图" style="rounded=1;whiteSpace=wrap;html=1;fontSize=14;fillColor=#d5e8d4;strokeColor=#82b366;" parent="1" vertex="1">
          <mxGeometry x="780" y="190" width="120" height="30" as="geometry" />
        </mxCell>
        <mxCell id="wtcgkGCjL-V0qk2THGTA-6" value="分页/模糊查询" style="rounded=1;whiteSpace=wrap;html=1;fontSize=14;fillColor=#d5e8d4;strokeColor=#82b366;" parent="1" vertex="1">
          <mxGeometry x="780" y="460" width="120" height="30" as="geometry" />
        </mxCell>
        <mxCell id="3bAerDYJrWj9A8o_MDeT-4" style="edgeStyle=orthogonalEdgeStyle;rounded=0;orthogonalLoop=1;jettySize=auto;html=1;exitX=1;exitY=0.5;exitDx=0;exitDy=0;entryX=0;entryY=0.5;entryDx=0;entryDy=0;" parent="1" source="6_AVYcbNs08KcEML1Ji8-2" target="3bAerDYJrWj9A8o_MDeT-3" edge="1">
          <mxGeometry relative="1" as="geometry">
            <Array as="points">
              <mxPoint x="590" y="295" />
              <mxPoint x="590" y="330" />
              <mxPoint x="625" y="330" />
            </Array>
          </mxGeometry>
        </mxCell>
        <mxCell id="wtcgkGCjL-V0qk2THGTA-15" value="双协同过滤推荐算法" style="rounded=1;whiteSpace=wrap;html=1;fontSize=14;fillColor=#e1d5e7;strokeColor=#9673a6;" parent="1" vertex="1">
          <mxGeometry x="765" y="260" width="150" height="30" as="geometry" />
        </mxCell>
        <mxCell id="U2U8d9sQ9sILnOG547oe-28" style="edgeStyle=orthogonalEdgeStyle;rounded=0;orthogonalLoop=1;jettySize=auto;html=1;exitX=1;exitY=0.5;exitDx=0;exitDy=0;entryX=0;entryY=0.5;entryDx=0;entryDy=0;" parent="1" source="wtcgkGCjL-V0qk2THGTA-19" target="U2U8d9sQ9sILnOG547oe-27" edge="1">
          <mxGeometry relative="1" as="geometry">
            <Array as="points">
              <mxPoint x="580" y="475" />
              <mxPoint x="580" y="555" />
            </Array>
          </mxGeometry>
        </mxCell>
        <mxCell id="wtcgkGCjL-V0qk2THGTA-19" value="（4）爬虫" style="rounded=1;whiteSpace=wrap;html=1;fontSize=14;fillColor=#f5f5f5;strokeColor=#666666;fontColor=#333333;" parent="1" vertex="1">
          <mxGeometry x="440" y="450" width="120" height="50" as="geometry" />
        </mxCell>
        <mxCell id="b_gnWmMxrn5kn90ioG4K-3" style="edgeStyle=orthogonalEdgeStyle;rounded=0;orthogonalLoop=1;jettySize=auto;html=1;exitX=1;exitY=0.5;exitDx=0;exitDy=0;" parent="1" source="jG9ODHnWhC-1K8Zq-rV6-1" edge="1">
          <mxGeometry relative="1" as="geometry">
            <mxPoint x="780" y="400" as="targetPoint" />
            <Array as="points">
              <mxPoint x="760" y="410" />
              <mxPoint x="760" y="400" />
            </Array>
          </mxGeometry>
        </mxCell>
        <mxCell id="b_gnWmMxrn5kn90ioG4K-4" style="edgeStyle=orthogonalEdgeStyle;rounded=0;orthogonalLoop=1;jettySize=auto;html=1;exitX=1;exitY=0.5;exitDx=0;exitDy=0;entryX=0;entryY=0.5;entryDx=0;entryDy=0;" parent="1" source="jG9ODHnWhC-1K8Zq-rV6-1" target="b_gnWmMxrn5kn90ioG4K-2" edge="1">
          <mxGeometry relative="1" as="geometry" />
        </mxCell>
        <mxCell id="jG9ODHnWhC-1K8Zq-rV6-1" value="个人中心" style="rounded=1;whiteSpace=wrap;html=1;fontSize=14;fillColor=#d5e8d4;strokeColor=#82b366;" parent="1" vertex="1">
          <mxGeometry x="620" y="395" width="120" height="30" as="geometry" />
        </mxCell>
        <mxCell id="IFDbjYEKfMzznov-QCEN-2" style="edgeStyle=orthogonalEdgeStyle;rounded=0;orthogonalLoop=1;jettySize=auto;html=1;exitX=0.5;exitY=1;exitDx=0;exitDy=0;" parent="1" source="wtcgkGCjL-V0qk2THGTA-6" target="wtcgkGCjL-V0qk2THGTA-6" edge="1">
          <mxGeometry relative="1" as="geometry" />
        </mxCell>
        <mxCell id="IFDbjYEKfMzznov-QCEN-6" style="edgeStyle=orthogonalEdgeStyle;rounded=0;orthogonalLoop=1;jettySize=auto;html=1;exitX=0;exitY=0.5;exitDx=0;exitDy=0;entryX=1;entryY=0.5;entryDx=0;entryDy=0;fontSize=17;" parent="1" source="IFDbjYEKfMzznov-QCEN-3" target="IFDbjYEKfMzznov-QCEN-4" edge="1">
          <mxGeometry relative="1" as="geometry" />
        </mxCell>
        <mxCell id="IFDbjYEKfMzznov-QCEN-7" style="edgeStyle=orthogonalEdgeStyle;rounded=0;orthogonalLoop=1;jettySize=auto;html=1;exitX=1;exitY=0.5;exitDx=0;exitDy=0;entryX=0;entryY=0.5;entryDx=0;entryDy=0;fontSize=17;" parent="1" source="IFDbjYEKfMzznov-QCEN-3" target="6_AVYcbNs08KcEML1Ji8-2" edge="1">
          <mxGeometry relative="1" as="geometry" />
        </mxCell>
        <mxCell id="IFDbjYEKfMzznov-QCEN-8" style="edgeStyle=orthogonalEdgeStyle;rounded=0;orthogonalLoop=1;jettySize=auto;html=1;exitX=1;exitY=0.5;exitDx=0;exitDy=0;entryX=0;entryY=0.5;entryDx=0;entryDy=0;fontSize=17;" parent="1" source="IFDbjYEKfMzznov-QCEN-3" target="wtcgkGCjL-V0qk2THGTA-19" edge="1">
          <mxGeometry relative="1" as="geometry" />
        </mxCell>
        <mxCell id="IFDbjYEKfMzznov-QCEN-9" style="edgeStyle=orthogonalEdgeStyle;rounded=0;orthogonalLoop=1;jettySize=auto;html=1;exitX=0;exitY=0.5;exitDx=0;exitDy=0;entryX=1;entryY=0.5;entryDx=0;entryDy=0;fontSize=17;" parent="1" source="IFDbjYEKfMzznov-QCEN-3" target="IFDbjYEKfMzznov-QCEN-5" edge="1">
          <mxGeometry relative="1" as="geometry" />
        </mxCell>
        <mxCell id="IFDbjYEKfMzznov-QCEN-3" value="Spark 求职&lt;br&gt;大数据平台" style="rounded=1;whiteSpace=wrap;html=1;fontSize=17;fillColor=#60a917;strokeColor=#2D7600;fontColor=#ffffff;" parent="1" vertex="1">
          <mxGeometry x="280" y="350" width="120" height="60" as="geometry" />
        </mxCell>
        <mxCell id="U2U8d9sQ9sILnOG547oe-15" style="edgeStyle=orthogonalEdgeStyle;rounded=0;orthogonalLoop=1;jettySize=auto;html=1;exitX=0;exitY=0.5;exitDx=0;exitDy=0;entryX=1;entryY=0.5;entryDx=0;entryDy=0;" parent="1" source="IFDbjYEKfMzznov-QCEN-4" target="U2U8d9sQ9sILnOG547oe-13" edge="1">
          <mxGeometry relative="1" as="geometry" />
        </mxCell>
        <mxCell id="U2U8d9sQ9sILnOG547oe-23" style="edgeStyle=orthogonalEdgeStyle;rounded=0;orthogonalLoop=1;jettySize=auto;html=1;exitX=0;exitY=0.5;exitDx=0;exitDy=0;entryX=1;entryY=0.5;entryDx=0;entryDy=0;" parent="1" source="IFDbjYEKfMzznov-QCEN-4" target="U2U8d9sQ9sILnOG547oe-14" edge="1">
          <mxGeometry relative="1" as="geometry" />
        </mxCell>
        <mxCell id="U2U8d9sQ9sILnOG547oe-24" style="edgeStyle=orthogonalEdgeStyle;rounded=0;orthogonalLoop=1;jettySize=auto;html=1;exitX=0;exitY=0.5;exitDx=0;exitDy=0;entryX=1;entryY=0.5;entryDx=0;entryDy=0;" parent="1" source="IFDbjYEKfMzznov-QCEN-4" target="U2U8d9sQ9sILnOG547oe-2" edge="1">
          <mxGeometry relative="1" as="geometry" />
        </mxCell>
        <mxCell id="GiAVZ2iymkBQcYbTgc6A-2" style="edgeStyle=orthogonalEdgeStyle;rounded=0;orthogonalLoop=1;jettySize=auto;html=1;exitX=0;exitY=0.5;exitDx=0;exitDy=0;entryX=1;entryY=0.5;entryDx=0;entryDy=0;" parent="1" source="IFDbjYEKfMzznov-QCEN-4" target="GiAVZ2iymkBQcYbTgc6A-1" edge="1">
          <mxGeometry relative="1" as="geometry" />
        </mxCell>
        <mxCell id="IFDbjYEKfMzznov-QCEN-4" value="（2）管理端" style="rounded=1;whiteSpace=wrap;html=1;fontSize=14;fillColor=#d5e8d4;strokeColor=#82b366;" parent="1" vertex="1">
          <mxGeometry x="120" y="270" width="120" height="50" as="geometry" />
        </mxCell>
        <mxCell id="U2U8d9sQ9sILnOG547oe-26" style="edgeStyle=orthogonalEdgeStyle;rounded=0;orthogonalLoop=1;jettySize=auto;html=1;exitX=0;exitY=0.5;exitDx=0;exitDy=0;entryX=1;entryY=0.5;entryDx=0;entryDy=0;" parent="1" source="IFDbjYEKfMzznov-QCEN-5" target="U2U8d9sQ9sILnOG547oe-25" edge="1">
          <mxGeometry relative="1" as="geometry">
            <Array as="points">
              <mxPoint x="100" y="475" />
              <mxPoint x="100" y="525" />
            </Array>
          </mxGeometry>
        </mxCell>
        <mxCell id="IFDbjYEKfMzznov-QCEN-5" value="（3）大屏端" style="rounded=1;whiteSpace=wrap;html=1;fontSize=14;fillColor=#d80073;strokeColor=#A50040;fontColor=#ffffff;" parent="1" vertex="1">
          <mxGeometry x="120" y="451.25" width="120" height="47.5" as="geometry" />
        </mxCell>
        <mxCell id="U2U8d9sQ9sILnOG547oe-1" value="用户管理" style="rounded=1;whiteSpace=wrap;html=1;fontSize=14;fillColor=#e1d5e7;strokeColor=#9673a6;" parent="1" vertex="1">
          <mxGeometry x="-200" y="240" width="120" height="30" as="geometry" />
        </mxCell>
        <mxCell id="U2U8d9sQ9sILnOG547oe-2" value="登录与注册" style="rounded=1;whiteSpace=wrap;html=1;fontSize=14;fillColor=#fff2cc;strokeColor=#d6b656;" parent="1" vertex="1">
          <mxGeometry x="-40" y="180" width="120" height="30" as="geometry" />
        </mxCell>
        <mxCell id="U2U8d9sQ9sILnOG547oe-3" value="系统权限" style="rounded=1;whiteSpace=wrap;html=1;fontSize=14;fillColor=#e1d5e7;strokeColor=#9673a6;" parent="1" vertex="1">
          <mxGeometry x="-200" y="160" width="120" height="30" as="geometry" />
        </mxCell>
        <mxCell id="U2U8d9sQ9sILnOG547oe-7" value="订单管理" style="rounded=1;whiteSpace=wrap;html=1;fontSize=14;fillColor=#e1d5e7;strokeColor=#9673a6;" parent="1" vertex="1">
          <mxGeometry x="-200" y="280" width="120" height="30" as="geometry" />
        </mxCell>
        <mxCell id="U2U8d9sQ9sILnOG547oe-9" value="日志管理" style="rounded=1;whiteSpace=wrap;html=1;fontSize=14;fillColor=#e1d5e7;strokeColor=#9673a6;" parent="1" vertex="1">
          <mxGeometry x="-200" y="200" width="120" height="30" as="geometry" />
        </mxCell>
        <mxCell id="U2U8d9sQ9sILnOG547oe-13" value="职位岗位管理" style="rounded=1;whiteSpace=wrap;html=1;fontSize=14;fillColor=#f8cecc;strokeColor=#b85450;" parent="1" vertex="1">
          <mxGeometry x="-40" y="330" width="120" height="30" as="geometry" />
        </mxCell>
        <mxCell id="U2U8d9sQ9sILnOG547oe-19" style="edgeStyle=orthogonalEdgeStyle;rounded=0;orthogonalLoop=1;jettySize=auto;html=1;exitX=0;exitY=0.5;exitDx=0;exitDy=0;entryX=1;entryY=0.5;entryDx=0;entryDy=0;" parent="1" source="U2U8d9sQ9sILnOG547oe-14" target="U2U8d9sQ9sILnOG547oe-9" edge="1">
          <mxGeometry relative="1" as="geometry" />
        </mxCell>
        <mxCell id="U2U8d9sQ9sILnOG547oe-20" style="edgeStyle=orthogonalEdgeStyle;rounded=0;orthogonalLoop=1;jettySize=auto;html=1;exitX=0;exitY=0.5;exitDx=0;exitDy=0;entryX=1;entryY=0.5;entryDx=0;entryDy=0;" parent="1" source="U2U8d9sQ9sILnOG547oe-14" target="U2U8d9sQ9sILnOG547oe-1" edge="1">
          <mxGeometry relative="1" as="geometry" />
        </mxCell>
        <mxCell id="U2U8d9sQ9sILnOG547oe-21" style="edgeStyle=orthogonalEdgeStyle;rounded=0;orthogonalLoop=1;jettySize=auto;html=1;exitX=0;exitY=0.5;exitDx=0;exitDy=0;entryX=1;entryY=0.5;entryDx=0;entryDy=0;" parent="1" source="U2U8d9sQ9sILnOG547oe-14" target="U2U8d9sQ9sILnOG547oe-7" edge="1">
          <mxGeometry relative="1" as="geometry" />
        </mxCell>
        <mxCell id="U2U8d9sQ9sILnOG547oe-22" style="edgeStyle=orthogonalEdgeStyle;rounded=0;orthogonalLoop=1;jettySize=auto;html=1;exitX=0;exitY=0.5;exitDx=0;exitDy=0;entryX=1;entryY=0.5;entryDx=0;entryDy=0;" parent="1" source="U2U8d9sQ9sILnOG547oe-14" target="U2U8d9sQ9sILnOG547oe-3" edge="1">
          <mxGeometry relative="1" as="geometry" />
        </mxCell>
        <mxCell id="U2U8d9sQ9sILnOG547oe-14" value="系统管理" style="rounded=1;whiteSpace=wrap;html=1;fontSize=14;fillColor=#e1d5e7;strokeColor=#9673a6;" parent="1" vertex="1">
          <mxGeometry x="-40" y="260" width="120" height="30" as="geometry" />
        </mxCell>
        <mxCell id="U2U8d9sQ9sILnOG547oe-25" value="涵盖职位的关系图、词云、散点图、得分、本系统平台的充值、包年包月、订单等多种角度的分析" style="rounded=1;whiteSpace=wrap;html=1;fontSize=14;fillColor=#d80073;strokeColor=#A50040;fontColor=#ffffff;" parent="1" vertex="1">
          <mxGeometry x="-190" y="480" width="240" height="90" as="geometry" />
        </mxCell>
        <mxCell id="U2U8d9sQ9sILnOG547oe-27" value="爬取各个城市、各个学历的招聘职位数据&lt;br&gt;（*）" style="rounded=1;whiteSpace=wrap;html=1;fontSize=14;fillColor=#f5f5f5;strokeColor=#666666;fontColor=#333333;" parent="1" vertex="1">
          <mxGeometry x="610" y="550" width="240" height="70" as="geometry" />
        </mxCell>
        <mxCell id="U2U8d9sQ9sILnOG547oe-29" value="&amp;nbsp; &amp;nbsp; &amp;nbsp;支付业务设计" style="text;html=1;strokeColor=#6c8ebf;fillColor=#dae8fc;align=center;verticalAlign=middle;whiteSpace=wrap;rounded=0;fontSize=27;" parent="1" vertex="1">
          <mxGeometry x="-780" y="780" width="680" height="60" as="geometry" />
        </mxCell>
        <mxCell id="U2U8d9sQ9sILnOG547oe-45" style="edgeStyle=orthogonalEdgeStyle;rounded=0;orthogonalLoop=1;jettySize=auto;html=1;exitX=1;exitY=0.5;exitDx=0;exitDy=0;entryX=0;entryY=0.5;entryDx=0;entryDy=0;fontSize=14;" parent="1" source="U2U8d9sQ9sILnOG547oe-30" target="U2U8d9sQ9sILnOG547oe-33" edge="1">
          <mxGeometry relative="1" as="geometry" />
        </mxCell>
        <mxCell id="U2U8d9sQ9sILnOG547oe-30" value="充值（输入金额）" style="rounded=1;whiteSpace=wrap;html=1;fontStyle=1;fontSize=14;fillColor=#ffe6cc;strokeColor=#d79b00;" parent="1" vertex="1">
          <mxGeometry x="-780" y="1059.5" width="120" height="60" as="geometry" />
        </mxCell>
        <mxCell id="U2U8d9sQ9sILnOG547oe-46" style="edgeStyle=orthogonalEdgeStyle;rounded=0;orthogonalLoop=1;jettySize=auto;html=1;exitX=1;exitY=0.5;exitDx=0;exitDy=0;fontSize=14;" parent="1" source="U2U8d9sQ9sILnOG547oe-31" edge="1">
          <mxGeometry relative="1" as="geometry">
            <mxPoint x="-600" y="1170" as="targetPoint" />
          </mxGeometry>
        </mxCell>
        <mxCell id="U2U8d9sQ9sILnOG547oe-31" value="包年会员" style="rounded=1;whiteSpace=wrap;html=1;fontStyle=1;fontSize=14;fillColor=#ffe6cc;strokeColor=#d79b00;" parent="1" vertex="1">
          <mxGeometry x="-780" y="1140" width="120" height="60" as="geometry" />
        </mxCell>
        <mxCell id="U2U8d9sQ9sILnOG547oe-44" style="edgeStyle=orthogonalEdgeStyle;rounded=0;orthogonalLoop=1;jettySize=auto;html=1;exitX=1;exitY=0.5;exitDx=0;exitDy=0;entryX=0;entryY=0.5;entryDx=0;entryDy=0;fontSize=14;" parent="1" source="U2U8d9sQ9sILnOG547oe-32" target="U2U8d9sQ9sILnOG547oe-33" edge="1">
          <mxGeometry relative="1" as="geometry" />
        </mxCell>
        <mxCell id="U2U8d9sQ9sILnOG547oe-32" value="包月会员" style="rounded=1;whiteSpace=wrap;html=1;fontStyle=1;fontSize=14;fillColor=#ffe6cc;strokeColor=#d79b00;" parent="1" vertex="1">
          <mxGeometry x="-780" y="1220" width="120" height="60" as="geometry" />
        </mxCell>
        <mxCell id="U2U8d9sQ9sILnOG547oe-47" style="edgeStyle=orthogonalEdgeStyle;rounded=0;orthogonalLoop=1;jettySize=auto;html=1;exitX=0.5;exitY=0;exitDx=0;exitDy=0;entryX=0.5;entryY=1;entryDx=0;entryDy=0;fontSize=14;" parent="1" source="U2U8d9sQ9sILnOG547oe-33" target="U2U8d9sQ9sILnOG547oe-34" edge="1">
          <mxGeometry relative="1" as="geometry" />
        </mxCell>
        <mxCell id="U2U8d9sQ9sILnOG547oe-33" value="点击支付，&lt;br&gt;产生订单" style="rounded=1;whiteSpace=wrap;html=1;fontStyle=1;fontSize=14;fillColor=#ffe6cc;strokeColor=#d79b00;" parent="1" vertex="1">
          <mxGeometry x="-600" y="1140" width="120" height="60" as="geometry" />
        </mxCell>
        <mxCell id="U2U8d9sQ9sILnOG547oe-48" style="edgeStyle=orthogonalEdgeStyle;rounded=0;orthogonalLoop=1;jettySize=auto;html=1;exitX=1;exitY=0.5;exitDx=0;exitDy=0;entryX=0;entryY=0.5;entryDx=0;entryDy=0;fontSize=14;" parent="1" source="U2U8d9sQ9sILnOG547oe-34" target="U2U8d9sQ9sILnOG547oe-35" edge="1">
          <mxGeometry relative="1" as="geometry" />
        </mxCell>
        <mxCell id="U2U8d9sQ9sILnOG547oe-34" value="支付宝沙箱登录" style="rounded=1;whiteSpace=wrap;html=1;fontStyle=1;fontSize=14;fillColor=#dae8fc;strokeColor=#6c8ebf;" parent="1" vertex="1">
          <mxGeometry x="-600" y="950" width="120" height="60" as="geometry" />
        </mxCell>
        <mxCell id="U2U8d9sQ9sILnOG547oe-49" style="edgeStyle=orthogonalEdgeStyle;rounded=0;orthogonalLoop=1;jettySize=auto;html=1;exitX=0.5;exitY=1;exitDx=0;exitDy=0;fontSize=14;entryX=0.5;entryY=0;entryDx=0;entryDy=0;" parent="1" source="U2U8d9sQ9sILnOG547oe-35" target="Yt5vqHqGk30RE-sgk8aL-1" edge="1">
          <mxGeometry relative="1" as="geometry">
            <mxPoint x="-300" y="1070" as="targetPoint" />
          </mxGeometry>
        </mxCell>
        <mxCell id="U2U8d9sQ9sILnOG547oe-35" value="输入支付密码&lt;br&gt;完成支付" style="rounded=1;whiteSpace=wrap;html=1;fontStyle=1;fontSize=14;fillColor=#dae8fc;strokeColor=#6c8ebf;" parent="1" vertex="1">
          <mxGeometry x="-440" y="950" width="120" height="60" as="geometry" />
        </mxCell>
        <mxCell id="U2U8d9sQ9sILnOG547oe-50" style="edgeStyle=orthogonalEdgeStyle;rounded=0;orthogonalLoop=1;jettySize=auto;html=1;exitX=1;exitY=0.5;exitDx=0;exitDy=0;entryX=0;entryY=0.5;entryDx=0;entryDy=0;fontSize=14;" parent="1" source="U2U8d9sQ9sILnOG547oe-36" target="U2U8d9sQ9sILnOG547oe-37" edge="1">
          <mxGeometry relative="1" as="geometry" />
        </mxCell>
        <mxCell id="U2U8d9sQ9sILnOG547oe-36" value="回调接口" style="rounded=1;whiteSpace=wrap;html=1;fontStyle=1;fontSize=14;fillColor=#ffe6cc;strokeColor=#d79b00;" parent="1" vertex="1">
          <mxGeometry x="-440" y="1140" width="120" height="60" as="geometry" />
        </mxCell>
        <mxCell id="U2U8d9sQ9sILnOG547oe-51" style="edgeStyle=orthogonalEdgeStyle;rounded=0;orthogonalLoop=1;jettySize=auto;html=1;exitX=1;exitY=0.5;exitDx=0;exitDy=0;entryX=0;entryY=0.5;entryDx=0;entryDy=0;fontSize=14;" parent="1" source="U2U8d9sQ9sILnOG547oe-37" target="U2U8d9sQ9sILnOG547oe-38" edge="1">
          <mxGeometry relative="1" as="geometry" />
        </mxCell>
        <mxCell id="U2U8d9sQ9sILnOG547oe-37" value="更新订单状态" style="rounded=1;whiteSpace=wrap;html=1;fontStyle=1;fontSize=14;fillColor=#ffe6cc;strokeColor=#d79b00;" parent="1" vertex="1">
          <mxGeometry x="-290" y="1140" width="120" height="60" as="geometry" />
        </mxCell>
        <mxCell id="U2U8d9sQ9sILnOG547oe-52" style="edgeStyle=orthogonalEdgeStyle;rounded=0;orthogonalLoop=1;jettySize=auto;html=1;exitX=0.5;exitY=1;exitDx=0;exitDy=0;fontSize=14;" parent="1" source="U2U8d9sQ9sILnOG547oe-38" target="U2U8d9sQ9sILnOG547oe-40" edge="1">
          <mxGeometry relative="1" as="geometry" />
        </mxCell>
        <mxCell id="U2U8d9sQ9sILnOG547oe-38" value="更新系统状态" style="rounded=1;whiteSpace=wrap;html=1;fontStyle=1;fontSize=14;fillColor=#ffe6cc;strokeColor=#d79b00;" parent="1" vertex="1">
          <mxGeometry x="-150" y="1140" width="120" height="60" as="geometry" />
        </mxCell>
        <mxCell id="U2U8d9sQ9sILnOG547oe-41" style="edgeStyle=orthogonalEdgeStyle;rounded=0;orthogonalLoop=1;jettySize=auto;html=1;exitX=1;exitY=0.5;exitDx=0;exitDy=0;entryX=0;entryY=0.5;entryDx=0;entryDy=0;fontSize=14;" parent="1" source="U2U8d9sQ9sILnOG547oe-39" target="U2U8d9sQ9sILnOG547oe-31" edge="1">
          <mxGeometry relative="1" as="geometry" />
        </mxCell>
        <mxCell id="U2U8d9sQ9sILnOG547oe-42" style="edgeStyle=orthogonalEdgeStyle;rounded=0;orthogonalLoop=1;jettySize=auto;html=1;exitX=1;exitY=0.5;exitDx=0;exitDy=0;entryX=0;entryY=0.5;entryDx=0;entryDy=0;fontSize=14;" parent="1" source="U2U8d9sQ9sILnOG547oe-39" target="U2U8d9sQ9sILnOG547oe-30" edge="1">
          <mxGeometry relative="1" as="geometry" />
        </mxCell>
        <mxCell id="U2U8d9sQ9sILnOG547oe-43" style="edgeStyle=orthogonalEdgeStyle;rounded=0;orthogonalLoop=1;jettySize=auto;html=1;exitX=1;exitY=0.5;exitDx=0;exitDy=0;entryX=0;entryY=0.5;entryDx=0;entryDy=0;fontSize=14;" parent="1" source="U2U8d9sQ9sILnOG547oe-39" target="U2U8d9sQ9sILnOG547oe-32" edge="1">
          <mxGeometry relative="1" as="geometry" />
        </mxCell>
        <mxCell id="U2U8d9sQ9sILnOG547oe-39" value="开始" style="ellipse;whiteSpace=wrap;html=1;aspect=fixed;fontSize=14;fillColor=#d5e8d4;strokeColor=#82b366;" parent="1" vertex="1">
          <mxGeometry x="-907" y="1130" width="80" height="80" as="geometry" />
        </mxCell>
        <mxCell id="U2U8d9sQ9sILnOG547oe-40" value="结束" style="ellipse;whiteSpace=wrap;html=1;aspect=fixed;fontSize=14;fillColor=#f8cecc;strokeColor=#b85450;" parent="1" vertex="1">
          <mxGeometry x="-130" y="1260" width="80" height="80" as="geometry" />
        </mxCell>
        <mxCell id="Yt5vqHqGk30RE-sgk8aL-2" style="edgeStyle=orthogonalEdgeStyle;rounded=0;orthogonalLoop=1;jettySize=auto;html=1;exitX=0.5;exitY=1;exitDx=0;exitDy=0;entryX=0.5;entryY=0;entryDx=0;entryDy=0;" parent="1" source="Yt5vqHqGk30RE-sgk8aL-1" target="U2U8d9sQ9sILnOG547oe-36" edge="1">
          <mxGeometry relative="1" as="geometry" />
        </mxCell>
        <mxCell id="Yt5vqHqGk30RE-sgk8aL-1" value="NATAPP" style="rounded=1;whiteSpace=wrap;html=1;fillColor=#ffe6cc;strokeColor=#d79b00;" parent="1" vertex="1">
          <mxGeometry x="-440" y="1059.5" width="120" height="40" as="geometry" />
        </mxCell>
        <mxCell id="b_gnWmMxrn5kn90ioG4K-1" value="短信修改密码" style="rounded=1;whiteSpace=wrap;html=1;fontSize=14;fillColor=#d5e8d4;strokeColor=#82b366;" parent="1" vertex="1">
          <mxGeometry x="780" y="380" width="120" height="30" as="geometry" />
        </mxCell>
        <mxCell id="b_gnWmMxrn5kn90ioG4K-2" value="充值月度、&lt;br&gt;年度大会员" style="rounded=1;whiteSpace=wrap;html=1;fontSize=14;fillColor=#d5e8d4;strokeColor=#82b366;" parent="1" vertex="1">
          <mxGeometry x="780" y="415" width="120" height="40" as="geometry" />
        </mxCell>
        <mxCell id="GiAVZ2iymkBQcYbTgc6A-1" value="评论管理" style="rounded=1;whiteSpace=wrap;html=1;fontSize=14;fillColor=#f8cecc;strokeColor=#b85450;" parent="1" vertex="1">
          <mxGeometry x="-40" y="385" width="120" height="30" as="geometry" />
        </mxCell>
        <mxCell id="3bAerDYJrWj9A8o_MDeT-7" style="edgeStyle=orthogonalEdgeStyle;rounded=0;orthogonalLoop=1;jettySize=auto;html=1;exitX=1;exitY=0.5;exitDx=0;exitDy=0;entryX=0;entryY=0.5;entryDx=0;entryDy=0;" parent="1" source="3bAerDYJrWj9A8o_MDeT-3" target="3bAerDYJrWj9A8o_MDeT-5" edge="1">
          <mxGeometry relative="1" as="geometry" />
        </mxCell>
        <mxCell id="3bAerDYJrWj9A8o_MDeT-9" style="edgeStyle=orthogonalEdgeStyle;rounded=0;orthogonalLoop=1;jettySize=auto;html=1;exitX=1;exitY=0.5;exitDx=0;exitDy=0;entryX=0;entryY=0.5;entryDx=0;entryDy=0;" parent="1" source="3bAerDYJrWj9A8o_MDeT-3" target="3bAerDYJrWj9A8o_MDeT-6" edge="1">
          <mxGeometry relative="1" as="geometry" />
        </mxCell>
        <mxCell id="3bAerDYJrWj9A8o_MDeT-3" value="职位详情" style="rounded=1;whiteSpace=wrap;html=1;fontSize=14;fillColor=#e1d5e7;strokeColor=#9673a6;" parent="1" vertex="1">
          <mxGeometry x="625" y="310" width="110" height="30" as="geometry" />
        </mxCell>
        <mxCell id="3bAerDYJrWj9A8o_MDeT-5" value="职位评分" style="rounded=1;whiteSpace=wrap;html=1;fontSize=14;fillColor=#e1d5e7;strokeColor=#9673a6;" parent="1" vertex="1">
          <mxGeometry x="780" y="300" width="120" height="30" as="geometry" />
        </mxCell>
        <mxCell id="3bAerDYJrWj9A8o_MDeT-11" style="edgeStyle=orthogonalEdgeStyle;rounded=0;orthogonalLoop=1;jettySize=auto;html=1;exitX=1;exitY=0.5;exitDx=0;exitDy=0;entryX=0;entryY=0.5;entryDx=0;entryDy=0;" parent="1" source="3bAerDYJrWj9A8o_MDeT-6" target="3bAerDYJrWj9A8o_MDeT-10" edge="1">
          <mxGeometry relative="1" as="geometry" />
        </mxCell>
        <mxCell id="3bAerDYJrWj9A8o_MDeT-6" value="职位评论" style="rounded=1;whiteSpace=wrap;html=1;fontSize=14;fillColor=#e1d5e7;strokeColor=#9673a6;" parent="1" vertex="1">
          <mxGeometry x="780" y="340" width="120" height="30" as="geometry" />
        </mxCell>
        <mxCell id="3bAerDYJrWj9A8o_MDeT-10" value="LSTM情感分析" style="rounded=1;whiteSpace=wrap;html=1;fontSize=14;fillColor=#e1d5e7;strokeColor=#9673a6;" parent="1" vertex="1">
          <mxGeometry x="915" y="340" width="120" height="30" as="geometry" />
        </mxCell>
        <mxCell id="wLEqM8aF8LvyR5twDsxs-1" value="" style="shape=image;verticalLabelPosition=bottom;labelBackgroundColor=default;verticalAlign=top;aspect=fixed;imageAspect=0;image=data:image/png,iVBORw0KGgoAAAANSUhEUgAAAGAAAABgCAYAAADimHc4AAAACXBIWXMAAAsTAAALEwEAmpwYAAAdKElEQVR4nO1cZ3Bc13VexU5siVjsvu27WCxAEv6VOIosiRabUEhg0Ym26L1jFwABooMFJEASYCfBCpEiRapRpiVZtvIjGfuXJzP+kTaZSXEyHns8iRM7TrEtxVHjyXznvvv27pJ0lJmgkNo78+Zh2yunfOc75cFkSqzESqzESqzESqzESqzESqzESqzESqzE+myu8FV/Rt+NwEDkxbTymRnT59XP8sdt/pJJZ0bLTNoXK2ZcG0Kz7vaaQ+7vhmbd36485ClYvat+RFbvUlpB95L/v7uvpBJvl/3/0r3k/2HP1cCfNsx736s64KLawx6qn/e+13TSR82nfdRyWuwbT/o+qZ/37Vzte3joVsuNtC/2Xg1c7LqS+vPOS6mfdFzwU/t5P7Uvij2/Puen6kNualjwssDbF1Oo86Kfui6lUtflVN53XPRT62LKJ82nfO/XzXtfKh5z7Sifcbsq97u/Gpr1VFXPur5TPet6NzTj3mT6rK7iGa+jbNq1q3yf88nhWxszItcDP+29mvqf3ZdTWdBt51Ko9XQKtZzyUbO+4XXjCS81HvdS61kh+J4XUin8YoAiN9Ko/6U03uM13sdxQjMuqplzU8MxrzjGmRT+LfbNJ32/aDjuzaufD2imz9Kqn/M8X7/g/QWE2SS2HwNGGha8bN31815qPuGj+qMeqp3zUO1hN9Uf9VL1rLB8CBDW3nctQAM302n3K+k09Np6Y8PrgZtp1H4uheqOeoSnnPfzb3qWUqn3hQDv8Rrvt5zyfVy34OkJzTgzQiHT50yP4sKN1c17DjSf8v5F67mUX6mwgb/bzvopdNAlFHDUw5YuLR/KqT0CRQhh4vss/FtC8Hve2ECjdzbS6Nc38h6vIWT8ruVMCnVeEt+Hhwy+LBSGPV7j/a5LfvYInLfygPObtXPumzVznh8wVB3yPGt6mNeuCXd61UHXnzUe9/w9YEVaLqAC1gshQhDwhLqjHha4geuXRQBmXL8ghNR80sev8RsIf+RrG2jszY008Y0Mmngng/d4v3pWHIuV9WKABT78ulAWfoM9Xg++ks6QBSVBuXVHPOxhDIFnU6j5lPc/Gk94O+oOc7x4zPSwrdB+Zz9gAzfUvZTKgocFSmFgi9wIsGBbdWvtvXqvgiAkKAOQ0XxKQEvkehpbPYQ++c0MmvrWl3jffzOdrRnnRCzAMXA+fHf8baGkibcz+PXw7fWsHHhM22IK1S94OWb0Xk3l68A5WflnU6jhmOfV6kPukrJR50bTw7B2jdt7qmfdH8KyYLUQ2O5XheDZat/OYOHUzOnQcsnPgoZAGFpu65Z6ez3/DoqAQOEhjce81HnBL47zTgZNvZNB038oFADFAa4aF3wsQCgcVg/hq4qCIvA+jo3zQtAI8KC4iB8cS24JD8FxoFB8Hjro+unMjOm3TGt5FQ9qgbJp54d10hKXdEu8vd4QGoQAiABDgVB7r+pQcVu31rcyWGj4PgQFpcAzAE0tZ3wcnNvPplDNIRGooUTEjhbkBYgfJ33UdMJHkZeEAqSnTL/7JVYCXo/e2UBDUMD1NL4WfL9qxsUKxm9Y+a+k83mhBHhC/VHP3YppZ6VpLa+C3VpNxV4n1c9LKBDChVWPvbWRJmG13/oShW+kcbDEzYevp7EwRu5EhcXbOxn8G3iDARfnUvjYoJmAGwgc78GK4UnwOOw5d1gUmN57LWAoHscc148JASMudZz3s+Ar97tY0LgGKB/XPCi/c8HP1xs66KZdY45O01pd+QPWzPIppxHUYD39N9NoCFh8R8ftdzIYzyE8MJHIDRFYGdd1BUlYAVwxXEAQVwMsVHgX09IzKZx8wcsQcHGciJ4T4DXel0EcMaT1jI+G9WCM8wHapHXjmOXTTv6uAVO6l7D36cG6ZtZNpeP2n5jW6srts5aUjjuYVsJiIABYENNAWDmw/Y2NbMFQEiyveynwqT0AVs8cX6WZN0WA53zg9WhOgPfxOTOdM0LIsHb+jONKgBUDJgbLLh1zUOfF1Jg4wQq4LhTQrCtg14SDiru9T5jW4irqsaWUjDt/WXPYzQIGziOrrTvipdCMSLZww8BpruEw3/eylTFjuYMYsPG+MQDCUhWL2BGTEyAf0De8xvv4HN+TEAK2I+tMLPyTPmY/ZVNOKhi0sYdwjGCmJBRvQNAJAUGlY/Z/Nq3FVX3Eu7X+uLer5ZTvruTUzCBOCIqHG8Brletj67wo8BoQAZjBjUu+vvuV9WzJgJPG4x6qmXVR43Ef/56p7at6TvBWFN4Yw9/SladDCEodDDVHPFS130Utp0EvRZYNyCzaY6f8AY09iIMwnzud4xMHfxjRnJsq9rmocNj+cWjG9DumtbBCE5qlctb9u/Xz3iuMyRf8LFS4N/Ppy6ls4bB0fAZB4qZQMhi8Jehe5EYafxeKAFTUL3hYyNWHXFQ75+a/m+IyZNBF0E7J8+NzAsOKXxdegPNC+aCpwPrK/U6GwaoDboYVeAaCO+6h/1YaNZ/0Uh0orc6ocE5cQ/Wch3LD1uumtbKqDrj+khMupU4Di4XrQsCgifAAuDtDxs10tkpp5WAaQ6+JpAiBk5VwGq7uYoHEVD7hNVz5FFXS1rN+fn/kjhK8JdVE/HhTJFysgBcCrDxQTZQ3wOtBaaEUrrxy9VV4bPMpkZ3jc8OglsTG5Yuzvg8aj3vfrZlxp+eOuNetmvBDUx5n3RHPR7Ba0D9OppRsFzcOi4NVMRtSywiAjLcF3x9VM9OrAWo+7WWL5OLbpdT7ZshQNCdJi6JyitiC+CGDN2e8dxS2s5TKzInL2dJTL4sCHY4F5WOPawUxkDmMzOBhNIA7nF8aChQaOuT64aqUKgpHrGlVB1w/gSVJ645JphBE38qghgVhwfJzKAZBFkKSbGdCoXytgAlQWCj1soArKBXYbGTIOj4ztuvQAoXBAMR5RXGOlQr6+kIqKwiYL5Qqrtco0r263hAwYAdeB+UaEHdnIx9TkgI1g25Y8N6t2OvoWHEFlIzab4ORcOHrkpJMIfPUU//IjXS2OCgI1iVLA/JzcH0JF6Nf38jW2jAv4MGgr6+IJE4qVbIjTqRkJguKeEpUTiEYA9agpOtpLHwJKZK6DirsCcqHkLHn+LKYwt/B/cjcRBoLzs+0+FY6KwnUNDTjuls0ZFvZTlzpuP1fEbyMeo9MpvRkC4LlUi8yYniAzIhRD7qfB3xNeADYSXP8MZUgy9+Px/clCEJ4TuiAm8LXRJGv6Tj6AXhfNHMgWNSUODFUoVCvqOJYUBS+B0XKc3P2rpQx8DvcC84r4pUbzOjUiiqgZMz+kwd5ABe/3sngG+GC25kobcR3cKOifr+Rhl9bT23nBB8HrspGCvAZggIEQNiyhAFBqJaIY0IAuBb8Fvht1IRO+VjwdfMeVoiaFHJpRKlNcXnkehrTZcAUFKVCJisJ9FZnVoAvGAmuG0W8wt3a2IoqoHjE/lc48T0xQEmmwtfS+OJk0a3nip+DMvd25z2CWqKpfiaalIE1ydp/vFfdzwPEb8SxIDhcCxQJo8AemS+CbhPakmd9XG7uYfxPN2APwbr7ip/qj4l8BXEA/WipLKOErkMbYgMUhNiDvKJs0kl5EeveFe1yFQ5pPwefxgXEsCBZUn5jA3N4pO2cvZ4Q1sjCOhktoKkJWZdOL3E8CDYa2B8cA5AjcDPnvM5qrgbYkrlHfD3KlnAuKBnXBO6PlicIAq6JvUWZroABsGGhl3FFqTPpx8M1c3V03isSsyEb5fVpqSumgIp9zitI3UtGHcLCFcrIeQDfPKqMKVQ0bGML4aTqiJ6QndcTshcFExlAQnZTsBp5g1AQd8sOI7AKT1BZEL4LaOGgqR8P7xmsBnWhV0UgxjkQg6AE6THymnnqQnqMvslKKnfikPjBu/ScAcYB5cBTYICFQ3YKRqwfNa5UPoDEo3rO9Tco3eYP2NjC8TeXh3VYgVBwkbBO1H8Kd9up+qBewwFcvSAEv/tV4d7Dt0X9XSZksFzZCAG9RGCOzwMaZOaqV1yNjtttEYckq2HYkE2dpWhTB9en5gE4J296PoDEDYYgu2L4PtqdMDiULkpG7BTs1ygY0ahgt40Khuw5yy78omFbSuU+5w+Y1s17xckHbXxRuEBZ5zEgRZ8+4EB4xEPNakKmd8hEA2ajwt1F6TmsJDuAi1YwIyMTTtVxPzawqjmIETQlXOl1nU6lqokEDkqFl8AY4DmycY/38X0oAr8RHim8B5BaO4syhoskEhTutt/ZETHbl1UBJaP2O2AcMvCWT7vYA1BqgBur4yK4IdyI7CjJRgpw9n4sZFIvokEJSLrAgNRaPbAW2MzM5phQimRgkfswsPiaUHz9H5S1Yq/LuBa1aS+DrSxbc53qUtQT8NuGeTFKU7nPRbvGHVQ0bIcn/Hn+gOkLyyX/x0rG7L9iKIHl6aVcQAH+RqDCBUur5qzxjsBrKAU3DvxsWPBQ5KVAbK/2XcGxuf4vO1EvpzP0wOLAjABxoYOu/6o7ipK26AmAXRn0No4tqUkeMyb9OgBDagMG1Vd8Lkvg40rGq2bccuCLJyiOehhSq2ddDL+IccV77FS420b5EWvLcinAVDpq/5nqAYAFWCGn7beEJallBjXDBaTgN9xOPOTmxozaLJ9SFAAoATzgXLhZKNwonC2KTY6P8KTcBQFrapZ9v6pojFcd8TCWw2tlGVv1RLUXIQuFgD4xJSEaOOXTDi5tqwoI9mtnlk0BRXtsfweNy+DHFBRJ05JIWmQDXFYlcUPS+mBFeu2ELQ+vZYY7gZtGrxbtR72AxkmVPoooK5JG4eyaKHXDmhmfUZA7LWirMbKiCFJSVtHZEtkrWMyuSQefS03ypCFEmzLRvoA6IYE+AvAfG2C4SFdAXr82smwKKBjUfgptI4DJBnWTMjAls1ajMaILFDcPocl+Li4a/QCDsXxddLHwd991vYyA5s2iUuJWptvkxqMjCJRLsfAAAanTcjJ5ggIlKQA7Q/DsezHN8BhZyo7xHJ0UQHmy+oqYJxs5u8Yc3MosGrIzIQlGrFPLpoBgxBqBqyEgAptRd4EXqINQRoELAQ0XbzS1U0X59qCbikfs3AeO4eyvQUhpYg5ULwd3y2roy7HHVSfcEOzjeT5YGvcdlN6w0fDRp+AwuVEy4uBjqMU2bHtgNK+AHgvYQoLYBFqNQV+MwMADDrkZekpG7VH8H4ACtN5lU0B+nzUM6gnLQfSH22FvTMBdUZKrmyIbVW8cSuOLHrFzMJY1mj6dh+N7+E6zMgcqSwHwJKNw9o1oH8GAF4Vt4XoQZ7icrU9H4HhcHFwQA1glYw6GQpQhZG8Cx4UiqxB7ZNPmdNxkNRS84OGGEYYPWPi69edFrL9c1t5A/oDlqWBEuwslwIqhCNAvWJNaYjBm+vVsMmoxDpG8TTrigqmP+wByUFZOQcuer6ygqoWz+7UdufnOUw4+gyLyAPCiqLDKeSJgNgRWPumMzo1ySXqDIXg5Bq+2V+Hlcowe1wpvZvo5aKd8JGVh63vLPjmHolNeRPsYSpBuhw04CGgSVUlR80Ggww3D0mAp+E3RkI1HC2GZ2NQ5zLp5zz3ZbQy/1ymrDPBqUS5meuGkj6EMggacwSNQlQWBAGcXWK3xNQoYFFQTQlVLG9y7vhUXd27eO7KI2lIwAg/Q3lxW4RtKCCdn5PVrNcUjtraqGdePyvc671btw1CTj3oAQ9fT+MJggZwwnfCx0BEHOFFTcB83P4A237UA1eglZbUbhs+NmVIVq422Y6wHtCseAGEDbpirTznZa3WcpuJhG2O7hD+M0RhV2yVBKtj7bouYA+944MjivAeG9f2dEbvPtJKrasb5IyNgwmIhML0nzLV9pbUoP+PuFlp8b27k2rpM1gZfTqca3WvkBIU69yPH0bnMoCdMHAMkS4mLAYzzow4WOmIVPLRsStSt0JjnkcZFvSJ7EaUN2VwSvY0Y6FNG4NXSBnIDVADY4w6675aM25YvCYtfmTOmz9fMud43ZvHj6jEIZvf2i6Mz/Zz4qHz79fXUcT6VBac25I0HMniS4t45fxa+Pj0N/Mf1AG5kpbJiyiUsfo9dFA51mISyeWIDDRzEh6PemFFKddxFbQQZg73qwLCeV5RO2Fd0evqx2sPuv25RLVzB654rAaNYBsy8Z1RcSXrG9fFDxAtRunZHA6H63MAtUV8alE+63NSfH0AecD6aB8DK2frB0vY6OVvlsXW99h/DanR2Fj/L+psVsPG+ChAji0mOFZF++ZSj1mjGKO1GKWQEQS7S6dVKWSeSpQrJZNT6T82sYBXA65gnIvGc1yU/C7pXZST6VB3P8pwU/B4eBHoIrAfP59KJPg0RPzSGvfogBkrpbedFDPi0EMQVW0DQIU7slpeGqqts0nma8Vrn7NLKZZWzSp8DlfM1aiM8pscaN/9ZPiWgA9YknwlWn3SU444QGOpDPO+JyuSsWyRXY0L4gB3QXdmMlznKPaxGz6Z5VnRRlJxxLLQuY4OwXqDj5DK+yitG22E8+QO25BVRQOmYo90ozMUzhzc28EQCLDomoMZPxd3zFEyA8R+NDmHBwhtwcxK3YeXYojRXCJ7rMcOC6jJFHrLxsQyCoOcUw3ECldm6bNggMLPCT/r+dxq6GM1xwLiCEesd00qtokHt98qnnXc5c5Vzn7LT9XI6C08maPASdS6URxeB5/d9DszHQpfdpuJhu9H9wogJlCoLYHIrm3BwSQBCYKVNODCxZjysZ3inpLP3gxR1xkhv2EDR9yRiMc+ORUsS6IrlR7RbK6aAvLD1GJck9rvEU446VnMT+1qAKveJ5AtKgKUiHkgcBruJNuJFAJXNDtw4GIy0ZniM0arkkrBQUsW0aA0iwN5vA4wwrXxAvyAmqCqjJmrDpmzaSY0n7i1FIKbAsACRamKHWtnKKaDf+mR+v/XHsi4kWYZ8GgWJFzJlVAlhIQaeL+D5gOjcDv5uWPBywsY3NIH2nrghCJL5vpIryGQLQmDrn3SwIqBoKB37ir0OVvr/WQE34xTA8CcIAQwDezA1ZPzxkJcX0X644g/w5ffbQpJjQwi4uKiQhXtKKMHF7ppwUjnjtVCIzFLL9zrZ6kvHnGxRUEDNrEcM28o+wdfuHUXkSuSInUpHRaKF32LD3/JBDvm88AMhSD4vphxbpZXofaP7xW3HIRtltlhpa0MybW9KpudbLJTTZaWdvdrPVuWJGfQ/gxHr92RzHsKARcIKi/eAxQiLBC1k4eBBiBFROYRXSM/puhwdhB2Le04s+lRjLPeGggt2izKw8LTYDf1eHot84NTEht8YhGEcuB9kzTASKDW310pfDZlpc20ybWu0UGablXK6NMrt1b5vWq0VGvY/Hoxoe4Jh7aX8Ae2PCwbslBu2UU6nRlntVlwc7ei20pa6ZHqmbB09U7GOGQ7cW05Bdyuj6/FTcKoHxD+vhXpOflijYJtGOWUWVixvKA6O6zmAPq1h0NCbD6ChS8ojSwj0aDOi0rs/CovbGpP5PiD851stlNVueX9Hr609uNuSbloLq2TUOVA07KBgv5129toou8PKbgqXfa7GTJuqzLSl1iw4Oh7k02lqZ1weoY6WxD8/gCa6eF7LSzvzrZT55STK/H2xZT+fTDsrLBTsEx4JwUEJPJauPBMANqMmYtwrUEmAnouAykKR2MP6BfRA+FbKbrf8bU6Xtrb+QVTFtDNYMoaLV5TQqVFmq5W2NVloa72wHhk3uL8cz9VfecD/dtAHtngsELX4CRfteDKJcp8yU56+4e+cJ5Moe5uZgr1CCRAgzqMmdC1xpQg5twS4UUkAD1zpDGdHjyasvs1KWR3aomktLrCAsknXHamEfMBRn412dGvsDcBMeERun8YNDDk32giY0LNVBEzjEaf4/26ijyxCkLs67JT3dDIVPmuh4k1iw9/Bp5Npxx+YqXBbMlutQQDGRWxCbKjY54yymoOicSMnGyRpyO+3qQznbk6n5ZfZndrHOd3WNzLDziTTGl6PlU+6SktGnXOFexx/hEAJb4AidvZoHLSgkGBYNHS47jMbLb5F6zWx/99HdqHkSEhpr52Kn02mss1WqtwqtvLNVlZE8CtmKt5iZrzObLNQdqeAj6fL1tFTJevoqeInKKfTSvmDGuX12Si7zcoGsrMbryF023eDEe29YNj6fl5E+05wt7YZ1d+H7n8KwSOKhp1PFu1xXIEi4BFQRh66R2Ht17JkUDbpYPfnduAJvQ+Lx1z1uR/+XxD6RJqRKxRbaNdzFqreZqXa5zXeqrdbqew5CxU+Y6aS55KU2JNEz5Qn0dO71tFXStfxHq/xPj7H9+CZrIReGxVEtC+bHrH1WOm4o6t41PG94mH794uG7a/lDds2BSPaPwTD2r9x3WdU5BIQMM9eHpb1HjGLKecwgctFO5Op5KvJVLXNSg3ZNmreYeetMdtOoe1WKtmUTKXPmWl7syAAm2vNTB8h8E2VELx4jfc5sDaD0TClvJkbsZWbPksLbp0XsV4JhrWPoAjgNbJrzh0mxF42//F5VruFSjaZqWJLMjVkatSWa6euoIO3jjw7NWRpVLHFQmWbzSxUWDYC/5b6ZNpcB2WIPV4znWyxUGa79YOcLm1xzf8rmuUee8/rs2QHI9qHMvgZQTBs/QD73D7rh9sak8+WbTJTaJuFmnI06sl3UKTIyVtvgZNacmxUvTWZyjcn3c3utL7Owb9VKAKWDhqJPQu+FYzG8o8rVkJ+GFZuv7Y1L2J9Ixi23g72W7fn9lvWA8IwCCD/PcCu58xUm2mhjlwb9Rc7aWiXi4bLXLS71EUdeTb+rGJz0l18d0eP9m0EfigiSzCxT7Larf+OwJzdZf1xdpe2ZbXv+aFblVvM1JRtpd4CB42Wu2myysMb/u4rslNTtkahrWZWAKx7Z582uqNHO5gXdmZghh+wt7NbCzx0rGYtrNBzj6eEtpmpbadG/aVOmgp5aF+tl/bXeWlvjZcGSp3UlqdRzfZkWu1rfSRX0bOPl9dnJVN3vo2Gy5x0oM5Lc00+3g7Ve2lPOQIyqKk5oYDlWFVbnjjXkpNM/YU2mgy56Gizj463pfA23+Kj6ZCLIsU2asyy0NNPm357WS7is7yqtib9SWuuhYZKHXSg1k2n2v10pjuVt9Mdfpqp89AwYCjHQhXPfGHDal/vI7eqtyf9U1e+RmOVTppt9tK5Hj9dDAd4O98ToLlGH41WOKkjaKWqbUmh1b7eR27VPL/u130FGo1VOOlwk5cWe/x0KRzg7UKvn440e2m8wkk9+Vaq2frEy6t9vY/cqsk0f9JbaGUFzDV56XxvVAEX+/x0tMVLY1VO6imwUvX2pB+t9vU+cqshK+lub4FGk1VOOtLsowuKB1wMp7IHTFS5CN+pzTR/sNrX+0itUMj0uaacZGY5UyEnW/v53tQoBPUF6GirjyZrnNRfhLqQSMYS6/9p1W0xb27dkUz9JTaaqnbRkSYfXegVwsd2vi9AC60+mq5xUX+xjVqzORl7+P7z+VpdoS1J3+vIs9JAqZ2ma9x0rDWFLvZFFQAmdKzVS/tq3TRYaqf2nclUuXVd9Wpf9yOxqrc8UdiYlUx9BVYarXDQwQY3He+IU0BfgE60p9DBejeNljuop0CjhszkT1rSTF9c7et/aFf15ieC9ZnmDzpyLRQpBv100L5aF+P/Ync0AEsFnOv203yzjw7UujgfQLzoDlqpOcv8iU5LE5D0aVZJzjp3XZb5I8BIuMhKI+V2mqpx0qFGLy20psQE35itDwmZn062p9Bsk5cO1EARLhostlFn0EqNWea7tZmPP7PslvOwr+rt5l935FlooMRGE5WAHA8da/PRuZ5UxvpLn2I7Hw7QqU4/HWrw0lS1iAudeRaqyUr6aLXvb82vhiwz9QRh+Q46WO+iY+0pdL7vAVb/GzawpBPtPjpYJ+JCX75GiCWrfX+JlViJlViJlViJlViJlViJlViJlVimz/T6H10UPTJoFLJaAAAAAElFTkSuQmCC;" vertex="1" parent="1">
          <mxGeometry x="760" y="210" width="50" height="50" as="geometry" />
        </mxCell>
        <mxCell id="wLEqM8aF8LvyR5twDsxs-2" value="" style="shape=image;verticalLabelPosition=bottom;labelBackgroundColor=default;verticalAlign=top;aspect=fixed;imageAspect=0;image=data:image/png,iVBORw0KGgoAAAANSUhEUgAAAGQAAABkCAYAAABw4pVUAAAACXBIWXMAAAsTAAALEwEAmpwYAAAMH0lEQVR4nO1da1AUVxbufWR3f+z+yT4KTFL73jzURFQMiopxI/IQAQEdBEZBMYmb1aTKJ0RXs0EHUATU1MY8ytpUysiasqIGwQHdNRijC+IaidmkssrcO4yKICiE7nHXs3XuzOAwOjPdMz3dPdhf1anp6bndc/t8fc6599zbtzlOhw4dOnTo0KFDhw4dOnTo0KFDh47QoKtuxCO9DZH7es2RN1B6zBH7extHPBqiv9PhiR5zxImehoiP75AR0dXbEAlDxBzRjb9xwxXnz8P3rFZ7LCFCISHCFkqFQ5Ty5ygVvqaU76aUF5zS7dx3jhDhICFCOR5DqX0SnkOOuiAZPeaI47jNLMOTjEFSImu44YSODv5xQvg1hAj1hPD9lAoQjBDC91Eq1BHCr7Za+cfkqCNzU94IaYjs5cIdViv8xGIZ+COl/OlgCfAv/CmrdeBFSuHHISKkhwtXXLzYF0GpYJLDEgIghqeUf4PSbyT7fBbAvROylws32Gw3f0Ypv8vh/5Um4i5iMAb9paMDfiq2/tiawgDuSUZPQ8S1a8ceepgLFwDAtwkRjITwneoTIXgSc50QfjkAfEfMtbCWljmyBmOGU/aGFRkWy8Bv0H+rr3jBHzEn29sHfsUNZ1gsfDregeorWxAlhPC9lArzuOEGNH9KhWq1FUwDl23oZrnhAOyQEcLv1YBSIThrEfZfvAg/EHPNJtPhZJOpjm4urScmU30ipxV0dsKPKBUa1VYmlY+UBrwmf9fNiCitByamegunHcsQ6tVWIpVfjn75JXw/rAhBf0upUKMB5UGILGW/r2Yxuimnu7JsKqtL4NRGuATw93a9ByuMBewzgOMruHAApUKW2oqmIuR1UxXMHPk4LBs/nX3id+mWws/htIz29oFfU8r3iL2gU03noazoVShISoTZ48Ywwe3y4j/Dqaa2kJPxzjQjXM+ohL8+k8++V24sk3gu/rpmO4+OuCGuB37p4k0wrV4PCaOfgOypUbBt9RSo2T6DCW7jvsTRI6F07QZov9QXMjKuzNkCB2YshY60soBJIYT/RJN9FErtS8WSsXx+LswaMwo+eD0e+i05IHTkDpF+Sw7s2xnPyryUkysbKe5kXE7fAhWTs6AluRi2xGYCTQ+GFKGQ02DWtltM5TevWgcpUaOgpS6NKf/qhXmwp/JZ2G2aDl1fZQNvzYXur7LZby11qYyUsqKNslsGknApdRNzWdb0MiiPzQCSVhogKXyXlCxxyOFIoYuLGeim0DJQ4a1H0uDN16bDtX87CBA6chkhb732DJxtcBD2tx3xzH2dPvG51/MWzk6Do4dP+CXj7bi8u8hwiVRSbtz4L9y+DezT6bp2cloAIf0Pix3PwGCN8QFdEloGkuHprgSn4G+dFwysLB6zdV2J1/Meq/sUsmIngflQU0BkBEIKkoHAT6eV8BZL/0Nh1efIT0qAytVTmcLRTblbhqdcaTOwII/b21ZNhUXJST7PjaTMnRw7hJQDe2udbmoBU/j2KQZoT9t8TzJcgrGkcvJcto3H4fF4Hn8Woom+CY6BSxl2TR0fNajk3aW/90qG4BRXmb1VMyA1euyQcxnjZzJleUrSk6MGy2wvqYA5T0WxOx4VvEMiIXjcnKfGsPOIn0gR+Bh90HBMSBAfWFGpNdXiCelyBvf3q2ZA2oRxfi3E0221Nn8NGU8/Dc9HxzHlSnFZKHgcHo/nEX+d9qWqESJ1doi7y3q/coZPlyW4iT+X5SuGnDz+GWTExMBz0VPBkmYCW3o5bJ2ceZeluMhCC0F5IToO0qOjoelYqwQyWCw5qdq8KWkVHRrUMWD7Cuo1TkvCsoYpvoP64pRUaKz13soSQ0rnnApGSnBkDJKi/FRSQvi1UiuK6RBswmJTljV7zY5mb+cXhkEirl6Yx5q9/2p0NHsx5jiavRcCVM69SXF1DFuT17FtV/wIngxGyEoVCBGOBFJZTIdgZw87fahwtBSMERhTdpumM7KQFNYxPOzqGL4aFBneSEGLOPjsi4wQ+chgUqvGsGxfIJXFNMhLuXlM0ah8b6mTmuoZrMzLeUZob++XhRCUTz8eSoq8luEQ1I1cc4lFAScvB1NhJAXTIeiKMKZUrLyTXKxYOYXFDPwNLUNOMjwtBVtR51M2OFpTMTFsv1z/QYg9RjFCCLEvkaPSmA7BYI0tKOyjpI6PYttb128KOmaIISUzZiLru+CnnGSgWK3CIgUJEbaGUllUIWn7zMZ64Z+fvyz7uQkRyhQjxPF8hvoKpRoWQoQPFSSEPSyj+kVTTQt/VjFCCBEuyVl57NRhDqrRR+cuVII5sVCclxDhP4oRggMycpKBaQ8WXCfFKk4K/m9oCOE7lSRkcPzDZrMDz/+PpaLxE7+LrbR7DgoVc8xHTircCMHxEVUIQRLcgd/FVrowNX3QIlyKaaw9wXJToSTBfYTR/X+xPuFKSJfnyJkLd0bQtHKnCqpYpqIuyz2oB2MhahFCnRaBMQv/F8mQO3YpHdTPyRFDlGjtUNVadwo2e/WOoaCtjqFzNQXF72gaRkKIUKokIYVqXzANQlxzihckJcGssVFMcFvmOcUFYZF+//uRU5A3M/GeM0Zm3kPyEhLhH+bTsigJp7FuXrUeZo4eCcmxEyD9uQzIXLeICW7jvoTRI8G0Jvg5xYqm34MZoEIy4pNSIK6kGqb6kbiSaohPTGHHyEHGsvl5kDhmNMz9UyEsMFfCwqPVQwT3Za1fzMpg2UBJIYS/2dwMDyhCBpye94i92bBPOGO8ZW/Nh762crBdahdd2YRRTzBFTzz+hSiJK6lmxwRLCM4pThzzJMzftYYp33igFLKK8iFjRR4YP9oCCxurwFhbzn7DMkhK6dqA5xR/pBwZLdldt1qywV2EM4vB1m4TVVl0Q3j3o7Kn7ngX4opLIK54k4eUsN9YmZLqoPsoGDPQTaFlMIW/WQQZL+eA8ZCDACaNVWzf/LeL2He0lAQ/c4q9C79CEULQMjzJcMnNtgrJhMTuO+bVMqat3igbIRisMT6gS0LLQMV7uiuXMKIOlMFCcyXMip3gc/qR6tOA7C2GG94IsbcWSCbEl0yTkRBjYiKkL8l03PlF+UMtw0PyPixlQR6305dkwMKkZMkP8ChChj9ChDOLJBMy+d1DihCSMi5qUMmZK41eyXCJq0xWcQGkjB86p9i/2F9QkpD93l3WNsmEuJQeckLGj4WsV8QTwoI8ln1lEcyOHifFOvosFnhQMUL40zmP2psN3XdZR2sh2CyXNUuI0d1lFRf4dFnuwlxWsniXhRkMTmk4WlqGGnuLoRdFOJN/wGbpsIuttBqElA8J6mU+g7rLklhQnxQtIajzfHt7/whOC8CV2AIhxFezd4qszd421oTFpixr9r611tGaOlh2x005W1857ziavRhzHM1ecfPDCBG2c1oBPqQidnU4tTqGpjUbWGfvTsewjMUIjCnYOUSykBRG2BurWVmxc4oJ4a/hw0uclkCp/XnRqZNEiamTBN+Ps4kRTIMsyzEyRTNLuUfqBPehy8Iyy3MXSJnGqlwiUeLCASf9VR4Thahg8cnFJDhu/mfQhLhIwXQIuiLs9KUXuiUXCzNYzEiQOKeYEL4JAL7FaREdHd/8XM4pQjRE4ppTjJ0+7KOg4Lb0OcX8dZtt4JeclkEIn6m2wqkCQgh/G9eQ5MIBuEbh8CdEKOfCa13e8F9nkXq3jj14jbeaDcn25mxqbzaQW2fmaWdtRW+DWLj4vdrKoyFc4o8R4UqutmSrv5SfP+CCkbhw5PCxDMF85Qr80HV9YUeI23DvHrWVSYOXDzyXiUU3haQgGbdaDOqvrShxUcyK8LQK/jYGcE0uUhYsrFY+Vey6WlQ7S41nccMZ2JHCUbUwIKPJZhv4BXc/AFMNztdVXFVb8fQu4budr6sYfi5K5PJOOx1vuVGdiAFMoSs64qdV4JqNhAgbnD5badeEE/6qNLEanNZgscCDlA78QUzWWAYiPsG1re4riwjmtQ2U8r/DVXUoFQ7j1EwZCMBz1OIkNkL433L3I+R6S0BzMzxAqX2ixSIsxhUS8NkLfCDG+RLJLrcXS3Y5953FMlgWl7jAic8A8F3ufofmXttwv0Nzr23QoUOHDh06dOjQoUOHDh06dOjQwYUx/g8gi0TAIl2glwAAAABJRU5ErkJggg==;" vertex="1" parent="1">
          <mxGeometry x="920" y="250" width="50" height="50" as="geometry" />
        </mxCell>
        <mxCell id="wLEqM8aF8LvyR5twDsxs-3" value="" style="shape=image;verticalLabelPosition=bottom;labelBackgroundColor=default;verticalAlign=top;aspect=fixed;imageAspect=0;image=data:image/png,iVBORw0KGgoAAAANSUhEUgAAAGQAAABkCAYAAABw4pVUAAAACXBIWXMAAAsTAAALEwEAmpwYAAAPvElEQVR4nO1daVQUVxbuWTIzP2b+ZJajmeTMPpkZBReUgIhEjQ6LiNC0NDuyCyjIIrKKuIuioMgmNlUoKkHNNsYI0cwoJhogBjUmJlKFMclkgWgSE0LVeOfc24DsVi90N1jfOfd0A0111f3qLu+++14pFDJkyJAhQ4YMGTJkyJAhQ4YMGTJkjA7aTz72xJ36ibV36iZ+hXK7bsLxO68+9uQofZ2MgbhdN6Hhdv2Es/fJmNB+p34i9JO6CR34N8V4BVyp+UkXr3EQeSZC4NntIse8JHJMi8AxNwSO6RB45nsSfM8xN/BvIse+KHBMHv5PF8/OwmMY41yQjNt1E/6D78kyBpLRS8rEGsV4AnDM30WOWSPy7CsCx94VeRYMEYFjvhF59qTYxqYCp/mbMc6R3NRwhNRPvKMY64CPDv5K5JkVIsdcNJQACXJB5Nk4uMX8cpQIua0YqwBOM0HgmC3GsASdLYdnOwWOKYX39+vs8ymAD0/IEcVYA3zA/kbg2DL0/6YmQhxEDMYhtgSuV/xa6vljNoUBfCAZt+snfPHFmd8+rhgrAFj7Q7GNDRI45nNzEyEOtpgvxbaqeICaH0m5Fsq06ibWYMzoliNji4yb7J+7/TdYtjCvQ9vBPyrGMwSu0pPuQLMrm5Xqxu6IrYyPYrwBzV/g2EJzK1jU343tRDerGA/AAZnAMUfMrVTRYGGOA6f5mZRr7nBUuXU4Km91OHp/2D5H6aKwFMC1fb8QOeZV8yuTNY5wTD1e04OuG4nomOMNWlHeVFiKZeAo2+xK5I0up+F6wU/HFCGU1nJsjQUoD3rk+qt5cKxwJRzeHgMNR7Lg2+v7DTgec3yktBjdlJYU5c12J5WzwtzQJYC/c2or7EzyhZXKZyDeewEUrvaHD17bbjQivrxcBhkh7vDPSX8HZ6tJ4DbNmt77OdlC8wvr9T6uwDP55tazpGAltrEqqRdVkRMKzpP/AUvn2sPKuKWwYrkKvOfYgrPVP+BQ3nKDyej8QANxnvPAw3YabN6TBIcby+FoSyWUvLgVgjznw6JpVnCtbqv+pHCMl8KceJBvhLbKPwk8c1vKxRwtWEF3alp2OBy6WAY7NJlQcHAtHLpQAknJgfS3Ok2qQYS8WLyKyN19JBeOXmH6Sc1b+8BnwWxIUC0wwErYL806eByJEIobEkfg37xbAZ4zp0JctAr2vZIPMZFK2Fm1lkiJi1YCc6YQIgPdQT3HFrpaK/VW2JpAN1imWjiIjB7ZWrKaLPTzt4oNIf682cYoIwUrkWNipF7EG7U5ZAH7T+2E1PRlUNNc0auk6otlkJgYAMXHNtNnrr6yRW9lhbs4wqp4v2EJQdeF32GI29IKE6GwvKot0yH1Ak6UJ5Minm3RDKmoVav84eD5YvrMf6oz9FZUir8LhKqdhyUkb186fcenTUUGESJwbLsuVeJRB5bQdbkATDtREZWnC4dU1Oa9KVD6gvbubfnXJr0VhWmui9UkKH5uy6DvePZtDfi7OUGsxzwDraObFJ4tUlgC4MOqx3Wdz7jzThm4T7eCpOSAfkoqP5EHWRuX03uMJd720ylT0ldJ316vgAjXOaB0tIWdVdm938P8ew9EBLiBq9UkuPTSRr2Pf6/zM7jX+WkPIZ1ws/K3Y2rM0VeYjRGUAa3Pj4fay5WkqE27k+Fgw17IWh9N1lGxLtTgOxfdEY5v8HheDjPAd+FsGo8g2WcPZRp0bCSjhxCLGJvgHLi+065CKwPb4n1IUUEe82BNRiikZoSCv6sT/S7G3QlU9tPh+mnDB4kNNVmQoHwGNOvDoSQjGE7uSyYrNfS4g66JY74xZI7eYFBDgqHKOpIFWWGLaeQcMM8OciM9oem5XLj73n5Y7ecMStupBmdBG6K9INFnodEJGFI4JsZ8hIxyd8hdI5CCYx4PG2t4fm+CaQjhmdfN1zdlggu8ayApONp3tZ4EX7xdYiJCWIDWKtO3koocm2aqC7zbQ8pT00Yk5b+NeyhrOl2VRq7w2qmtkB7kRmKqc+22khQzEMKcMuVF3h2GFPz9kfxYiHKfS8nAUBLjMRfeelH/yq4ecsIc07LYmgnmJOXc4SxQOz4FLtZWELA0AuKz9kH6njpYV9kEa8tfh5Rtx8BfFQ7e8/5JxGSGLDaJ66Jsy0i9xJKAzcumJkPsE6ST1c6weLo1FQb9PAMhc+8Z2HDo2rCyvvodImuxnR34P20PN4w43zKcdHFVdiYjRGxjI81FiMizUFuoLd1HRGeTslHpqdtfgGD/FeDnFQL+3qGQsrV2EDFZpefAe74zqB1tDa5fSZAwkxEi8OwOc5Hxbv02cLWeDMtCkkjJuVUtEBKYAGFha8hNjWQpKNnl58HD3gESVAvRtYzaeQocu81khND6DDMRkuLrDMqnF8D6g1dhffUV8FeFQfLmmgcS0VeSNh0mC3vtgP6V5AcKxzxvSkJazEHGtVPaCvCqnEpSbFTcBkjIqtCJjB7xdVdDrMf8UTxf5pLJCBF4hjcHIRXrwmDxzJlkHesqm8HPK1hnIjKKtAnAyvRSSgo+aRydWCJwTKvpCOHYdnMQEq9aCAGqcFIoWsaKtGKdCQnyjaHXnP1vkrXVVw6et8fYgrOaJZnB1BFzZEcsfHxxt66EfG46Qsy0nsN/rj2ER2aQQsOjsmnMoSsh2WXnKBHA94tsplOfVt/v+PxSMTU+IFlL7G3Az2UOlV5cp0yGZ3fGSSeEZzvHPSFeT02HqLiNpMyQ4ETI3veGzoRExuRCWsHL9N5ztiO5wZ7jf3+jEmKXzANPexvIZ7N6J7SwfQjn5pEkLN1bHiF9Xdato3Dvu08A7glw77uP6efRIiRkgSOEhq7WxoCMUnI7uhLS8384fnGZYg2bYpRUVsFYcmp/KsWVwup1Q04tRy/zAB+HGUScpbms3qBOZPQBkTJKhKwJcAM/Dz+9sqr7hJTQa2bxa3THu02x6q154fy7r7Pj8F0qz2uzvKsnN1tWUO+b9qJl9MP/ukaNkGd3xoHrFCvKsPQhI2njIUqV8f3yVXkUF756p7y7SrwBIl3nUD/YcIQcOLeXCMFKskWlvX0HhmgRprKQjy7sprt4ecJWUmruwSuwYk2RJDLQTandfWEde4nSZqXTM1Rs7Hv8/ERfUM21653jHyjoypAQSb3HphwY0m4K/WLIx9oY8u1HoxpDRJ6FtEA3alLILD7dOziMXL4ONlRfHTGzUi/2g/TCU/RzTOIOarB4r35bv2O/eVyr8I2FiYPbhlo0EOA+F8JcHCWVXASO2WoyQrBTbzSVLo7QD4yKXDTVCpa6LIH1By73DvJ8PQJgZWZ5P3eWUXQaIpbn0AAyo1g7IFy9/Tlye7uS/Yadf0dXlrEukrookQzsEQvxWkDpL7o2SefLMaHjtvz+3fsayFu5lNwVdsVffnkTuE21Ah9XJayt0Ka+SMTK9BIa+FHFVxkKoWGpsHrbsX4xxN3GBuKVC+mYQ30X9oEVpQVQzxZaC5KDr/5z7aDxeK5llt+NOUGFceH5ogQaDxzeHkPrRfr+vePtEkjyWQhLZkyBhsP3gymu7VDa2YCnw2wiYiSXhVXg4MB4cJ48CdJD3CW1AGF5Hufjn9sTT0To0rAncMzX0Fj6iGnIuOjzRFejurar2V8QmgNAuJwAwg3du8fxDi1I8ae7Hu9CDKbuM6bQ3ZikdqZxAQbPwLl2EDJ/FrT+O3/QMW5dKIS14R70P1hSxzJ8bEoBJOZW0YRUdPwW8PXwBRfryRR3skPdDeqm10H+ZToymnzbhSZf6CfNQSC2Sm88Q6WkhywCt2lWkLMtTruQ5goDtZc1kM9kgvfTduAz24ZmBXF2sKOldMTjoVUVpwdB0HwHcJmsdTUo7tOsqVyPsadwdQCoZtnA19f2mYKQZJMQgpYxiIweubJK54U0uEBnqPSy6uweavvEMkanhFHxQLLR3Qx0S+j60O0NrF2N6Tagrib1V8MS0hwo+YSj3Z0getmSYQdgR68w1POL7qy9xXhNCWXZIdSeOspWct4kZDyYkCBJJ4zBEetFQ+X6R/tI5ZkCcjsXj+UYTVk9VlK9LZosD2MQWpNRp3I5drkpCTk+vMtKlHTCeHeionE52UiEVDVoyxTY6mPMO/jAlihI9XcGj+4EAgWXzmE6LaVo+MD2n5vlj5qMkM6L/k92Nao7BpHxlm5B3cdxJiSnBo9IyC42m5TVenan0chAawicZw+LpltDek4ElUKwzI4rgNFq04PddI5Z/Qjh2e0KU0ObaalruprUd0iaA18QWsu6ei3gnB183WA/4onjkgCPmVOh6mzRkGTUXtbQyDhqkZNRrSPZ1xm8Zs0ATf0u7Qj8pTxISgqgV8zuMNFgN0XqS0YntFU/prAE4E5svYQ02MPXDbNGPHkM1Ogm/FycQPNqQT8yDr9ZDrFR3t2rmySWKSQI1q3Q4vLK0vovj26ugC3FKfQeF5t62U7Vy0oEjtmtsBTgIhVdd4e78doOch84KIwKdofVqcG0THqJ3XRa7oYN08a0jmOF8TTuwbWFKAOtEtfL7z22kUjDbTh0I4P9AhcvKSwJIsdE69OrW1uwAlL8nCFkgQPtulC+dhnNTxiTDBQcf+CODlhax40JBhKyYdcqKD+xXbvQ9ISOC01NWUiUCu3GAczrxlakaCTB9YS0Nr5uF82PYxZ3P2b1rHFMpDiiU0M2x54DgB8oLBHQeuB35moREiU0aavsbWj1LZKxMtaHNi3AlcBZG6Kh+kIpeDnaQpoOa0loaw2e/YPCkiHwld7mVr44jGBcwvQ2KmQxlWdwjxUM6riOHdt9PGdOA75BWpotcMw93ENSMRaAexSaW/niMIKNcV5PTSPXpF7gAN6OtuTKQhY6DJpBfAAheYqxAownlrzP4u2r5XCyIgVKs0JAkxtG8yy6pLoCzxyia2xUu3U1+t7qalR/KDT7WM7eiiNs8XfS3MoXR3GLPyKiu1rR1eRr/q38JG6CWW8BSgSjCMfWwac1P++5vjFHSO90L88cMrsyeYPl6MBtYtFNISlIhtCkNv/eilJB/pZn8i1AqaCraLMpJm/cbKTcF0Ir46HLvlqiJWw13saqFOMZOJDCWTVzK1uUMgLnNL9XPAzAUgM9roJnP7NAF9WhfVzFOHRRkrZ34tkinEswOxE8+x2W0E0642ep6N6zMYd8tukt4huBYwosYjc4SwPcLH9U5NlYE1WNz+PeVg+VRRjy2Aa4wfwVd9UReeZlbM00giXgMU5gExt8cPAviocRxnpKADSWPtLFMfYiXxWOOyTg2gtcEKN9sCTbfv/Bkmw7PViSZy7hZ+izPBuGjc8AZ36seNhhcY9teNhhcY9tkCFDhgwZMmTIkCFDhgwZMmTIkKEYw/g/ugjvg9iLxowAAAAASUVORK5CYII=;" vertex="1" parent="1">
          <mxGeometry x="1035" y="330" width="50" height="50" as="geometry" />
        </mxCell>
        <mxCell id="wLEqM8aF8LvyR5twDsxs-5" value="职位推荐" style="rounded=1;whiteSpace=wrap;html=1;fontSize=14;fillColor=#e1d5e7;strokeColor=#9673a6;" vertex="1" parent="1">
          <mxGeometry x="620" y="220" width="120" height="30" as="geometry" />
        </mxCell>
      </root>
    </mxGraphModel>
  </diagram>
</mxfile>
